<svg width="33" height="33" viewBox="0 0 33 33" fill="none" xmlns="http://www.w3.org/2000/svg">
<path fill-rule="evenodd" clip-rule="evenodd" d="M16.5 0C7.38645 0 0 7.57343 0 16.9177C0 24.391 4.72634 30.733 11.284 32.972C12.1095 33.1246 12.4073 32.6039 12.4073 32.1561C12.4073 31.7541 12.394 30.6889 12.3891 29.2794C7.79838 30.3005 6.82895 27.0099 6.82895 27.0099C6.08121 25.0559 4.99764 24.5352 4.99764 24.5352C3.5005 23.4853 5.11179 23.509 5.11179 23.509C6.7694 23.6277 7.63791 25.2527 7.63791 25.2527C9.11024 27.8376 11.5024 27.0913 12.4387 26.6588C12.5892 25.5648 13.0194 24.8184 13.4892 24.3961C9.82655 23.9704 5.97534 22.5184 5.97534 16.034C5.97534 14.1902 6.61886 12.6772 7.66934 11.4967C7.50226 11.0675 6.93152 9.34593 7.83312 7.01878C7.83312 7.01878 9.21777 6.56251 12.3692 8.75057C13.7151 8.37516 15.1035 8.18353 16.4983 8.18066C17.8932 8.18298 19.2817 8.37461 20.6275 8.75057C23.7806 6.56081 25.1636 7.01878 25.1636 7.01878C26.0652 9.34593 25.4994 11.0675 25.3273 11.4967C26.3861 12.6772 27.0214 14.1885 27.0214 16.034C27.0214 22.5354 23.1668 23.9636 19.491 24.3825C20.0783 24.905 20.6076 25.9362 20.6076 27.5137C20.6076 29.7764 20.5878 31.6015 20.5878 32.1561C20.5878 32.609 20.8822 33.1348 21.7243 32.9686C28.2786 30.7262 33 24.3893 33 16.9177C33 7.57343 25.6135 0 16.5 0Z" fill="white"/>
</svg>
