<svg width="90" height="33" viewBox="0 0 90 33" fill="none" xmlns="http://www.w3.org/2000/svg">
<g clip-path="url(#clip0_8743_155)">
<path d="M46.4653 10.9304L50.7471 10.6571C50.8448 11.3483 51.0239 11.8627 51.3169 12.2324C51.7891 12.811 52.4403 13.1004 53.3032 13.1004C53.9381 13.1004 54.4428 12.9557 54.7847 12.6503C55.1103 12.4092 55.3057 12.0234 55.3057 11.6216C55.3057 11.2358 55.1266 10.8661 54.8173 10.625C54.4917 10.3356 53.7265 10.0463 52.5217 9.78912C50.5517 9.35512 49.1353 8.77645 48.305 8.03705C47.4747 7.34586 47.0025 6.3332 47.0351 5.25624C47.0351 4.51683 47.263 3.77743 47.6863 3.16661C48.1747 2.47543 48.8423 1.92891 49.64 1.6235C50.5029 1.2538 51.7077 1.06091 53.2218 1.06091C55.0778 1.06091 56.4942 1.39847 57.4711 2.08965C58.4479 2.76476 59.034 3.8578 59.2131 5.35268L54.9801 5.59379C54.8661 4.95083 54.6382 4.48468 54.2637 4.17928C53.8893 3.87387 53.4009 3.7292 52.7659 3.7292C52.2449 3.7292 51.8542 3.84172 51.5937 4.05068C51.3495 4.24357 51.1867 4.53291 51.203 4.85439C51.203 5.0955 51.3332 5.32053 51.5286 5.4652C51.7402 5.65809 52.2449 5.8349 53.0427 5.99564C55.0127 6.41357 56.4128 6.83149 57.2757 7.26549C58.1386 7.69949 58.7572 8.22993 59.1317 8.85682C59.5224 9.49978 59.7178 10.2392 59.7015 10.9947C59.7015 11.8948 59.441 12.795 58.92 13.5504C58.3828 14.3381 57.6339 14.9489 56.7547 15.3186C55.8267 15.7204 54.6545 15.9294 53.2543 15.9294C50.7797 15.9294 49.0702 15.4633 48.1096 14.5149C47.1491 13.5665 46.5792 12.377 46.4653 10.9304ZM1.02569 15.6883V1.3181H8.53111C9.91498 1.3181 10.9895 1.43062 11.7221 1.67173C12.4385 1.89676 13.0734 2.36291 13.4967 2.9898C13.9689 3.68098 14.1968 4.48468 14.1805 5.32053C14.2294 6.73505 13.4967 8.08527 12.2431 8.79253C11.7547 9.06578 11.2174 9.25867 10.6639 9.35512C11.0709 9.46764 11.4779 9.66052 11.8361 9.88556C12.1129 10.1106 12.3408 10.3678 12.5525 10.641C12.7967 10.9143 13.0083 11.2197 13.1874 11.5412L15.369 15.7044H10.2569L7.84732 11.284C7.53799 10.7214 7.2775 10.3517 7.03329 10.1749C6.70767 9.94986 6.31693 9.83734 5.92619 9.83734H5.53546V15.6722H1.02569V15.6883ZM5.53546 7.1369H7.4403C7.84732 7.10475 8.23806 7.04046 8.6288 6.94401C8.92185 6.89579 9.18234 6.73505 9.36143 6.49394C9.80101 5.91527 9.73589 5.0955 9.19863 4.5972C8.90557 4.35609 8.33575 4.2275 7.52171 4.2275H5.53546V7.1369ZM0 28.001L4.28184 27.7277C4.37952 28.4189 4.55861 28.9333 4.85166 29.303C5.30753 29.8817 5.97504 30.1871 6.83792 30.1871C7.47287 30.1871 7.97757 30.0424 8.31946 29.737C8.64508 29.4798 8.84045 29.1101 8.84045 28.7083C8.84045 28.3225 8.66136 27.9528 8.35203 27.7117C8.02641 27.4223 7.26122 27.133 6.04016 26.8758C4.07019 26.4418 2.65376 25.8632 1.82344 25.1237C0.993126 24.4326 0.520984 23.4199 0.553546 22.3429C0.553546 21.6035 0.781476 20.8641 1.20478 20.2533C1.6932 19.5621 2.36071 19.0156 3.15847 18.7102C4.02135 18.3405 5.22612 18.1476 6.74023 18.1476C8.59624 18.1476 10.0127 18.4852 10.9895 19.1764C11.9664 19.8675 12.5362 20.9445 12.7153 22.4394L8.48227 22.6805C8.36831 22.0375 8.14038 21.5714 7.76592 21.266C7.40774 20.9606 6.90304 20.8159 6.26809 20.832C5.74711 20.832 5.35637 20.9445 5.09588 21.1695C4.83538 21.3624 4.68886 21.6518 4.70514 21.9732C4.70514 22.2143 4.83538 22.4394 5.03075 22.584C5.2424 22.7769 5.74711 22.9538 6.54486 23.1145C8.51483 23.5324 9.91498 23.9503 10.7779 24.3843C11.6407 24.8183 12.2594 25.3488 12.6339 25.9757C13.0246 26.6186 13.22 27.358 13.22 28.0974C13.22 28.9976 12.9432 29.8817 12.4385 30.6371C11.9012 31.4248 11.1523 32.0356 10.2732 32.4053C9.34515 32.8071 8.17294 33.0161 6.77279 33.0161C4.29812 33.0161 2.58864 32.55 1.62808 31.6016C0.667511 30.6371 0.130246 29.4477 0 28.001Z" fill="white"/>
<path d="M21.6535 26.8758L25.5935 28.0492C25.3818 29.0297 24.9422 29.962 24.3398 30.7818C23.7863 31.5051 23.0537 32.0677 22.2233 32.4374C21.3767 32.8071 20.3022 33 18.9997 33C17.4205 33 16.1181 32.775 15.1249 32.3249C14.1155 31.8748 13.2526 31.0711 12.52 29.9299C11.7874 28.7886 11.4292 27.3259 11.4292 25.5416C11.4292 23.1627 12.0641 21.3302 13.3503 20.0604C14.6365 18.7905 16.4437 18.1476 18.7881 18.1476C20.6278 18.1476 22.0605 18.5173 23.1188 19.2406C24.1607 19.98 24.9422 21.1052 25.4632 22.6162L21.4907 23.4842C21.393 23.1466 21.2465 22.8091 21.0511 22.5197C20.8069 22.1822 20.4976 21.925 20.1231 21.7321C19.7487 21.5392 19.3254 21.4588 18.9021 21.4588C17.8764 21.4588 17.0949 21.8607 16.5576 22.6805C16.1506 23.2752 15.939 24.2236 15.939 25.5095C15.939 27.1008 16.1832 28.1939 16.6716 28.7886C17.16 29.3833 17.8438 29.6727 18.7393 29.6727C19.6021 29.6727 20.2534 29.4316 20.6929 28.9654C21.1325 28.4671 21.4581 27.7759 21.6535 26.8758ZM30.8521 18.3887H35.3456V23.4199H40.2624V18.3887H44.7885V32.7589H40.2624V26.9401H35.3456V32.7589H30.8521V18.3887V18.3887Z" fill="white"/>
<path d="M44.1699 25.5737C44.1699 23.2269 44.8374 21.3945 46.1562 20.0925C47.4749 18.7905 49.3309 18.1315 51.6916 18.1315C54.1175 18.1315 55.9735 18.7744 57.2922 20.0604C58.611 21.3463 59.2622 23.1466 59.2622 25.4612C59.2622 27.149 58.9691 28.5153 58.3993 29.5923C57.8458 30.6531 56.9829 31.5211 55.9246 32.0998C54.8338 32.6945 53.4825 33 51.8707 33C50.2264 33 48.8751 32.7428 47.8005 32.2284C46.6934 31.6819 45.7817 30.83 45.1793 29.7851C44.5118 28.66 44.1699 27.2615 44.1699 25.5737ZM48.6634 25.5898C48.6634 27.0365 48.9402 28.0813 49.4774 28.7243C50.0147 29.3511 50.7636 29.6726 51.7079 29.6726C52.6685 29.6726 53.4174 29.3672 53.9547 28.7403C54.4919 28.1134 54.7524 27.0043 54.7524 25.3969C54.7524 24.0467 54.4756 23.0501 53.9221 22.4393C53.3686 21.8124 52.6196 21.507 51.6753 21.507C50.845 21.4749 50.0473 21.8285 49.4937 22.4554C48.9402 23.0823 48.6634 24.1271 48.6634 25.5898V25.5898ZM63.8696 25.5737C63.8696 23.2269 64.5371 21.3945 65.8559 20.0925C67.1746 18.7905 69.0306 18.1315 71.3913 18.1315C73.8172 18.1315 75.6895 18.7744 76.9919 20.0604C78.2944 21.3463 78.9619 23.1466 78.9619 25.4612C78.9619 27.149 78.6688 28.5153 78.099 29.5923C77.5455 30.6531 76.6826 31.5211 75.6243 32.0998C74.5335 32.6945 73.1822 33 71.5704 33C69.9261 33 68.5748 32.7428 67.5002 32.2284C66.3932 31.6819 65.4814 30.83 64.879 29.7851C64.2115 28.66 63.8696 27.2615 63.8696 25.5737V25.5737ZM68.3631 25.5898C68.3631 27.0365 68.6399 28.0813 69.1772 28.7243C69.7144 29.3511 70.4633 29.6726 71.4076 29.6726C72.3682 29.6726 73.1171 29.3672 73.6544 28.7403C74.1916 28.1134 74.4521 27.0043 74.4521 25.3969C74.4521 24.0467 74.1754 23.0501 73.6218 22.4393C73.0683 21.8124 72.3193 21.507 71.3751 21.507C70.5447 21.4749 69.7307 21.8285 69.1934 22.4554C68.6399 23.0823 68.3631 24.1271 68.3631 25.5898V25.5898Z" fill="white"/>
<path d="M78.4894 18.3887H82.9829V29.2226H89.9999V32.7589H78.4731V18.3887H78.4894Z" fill="white"/>
</g>
<defs>
<clipPath id="clip0_8743_155">
<rect width="90" height="33" fill="white"/>
</clipPath>
</defs>
</svg>
